<!DOCTYPE svg PUBLIC "-//W3C//DTD SVG 1.1//EN" "http://www.w3.org/Graphics/SVG/1.1/DTD/svg11.dtd">
<!-- Uploaded to: SVG Repo, www.svgrepo.com, Transformed by: SVG Repo Mixer Tools -->
<svg version="1.1" id="Layer_1" xmlns="http://www.w3.org/2000/svg" xmlns:xlink="http://www.w3.org/1999/xlink" viewBox="0 0 512 512" xml:space="preserve" width="800px" height="800px" fill="#07357d" stroke="#07357d">
<g id="SVGRepo_bgCarrier" stroke-width="0"/>
<g id="SVGRepo_tracerCarrier" stroke-linecap="round" stroke-linejoin="round"/>
<g id="SVGRepo_iconCarrier"> <g> <rect x="238.933" y="255.331" style="fill:#003366D0E8FF;" width="85.333" height="51.2"/> <path style="fill:#003366D0E8FF;" d="M443.733,280.931c0-14.117-11.458-25.6-25.55-25.6h-76.85v51.2h102.4V280.931z"/> <rect x="128" y="255.331" style="fill:#003366D0E8FF;" width="93.867" height="51.2"/> <rect x="17.067" y="161.465" style="fill:#003366D0E8FF;" width="93.867" height="51.2"/> <rect x="128" y="161.465" style="fill:#003366D0E8FF;" width="93.867" height="51.2"/> <path style="fill:#003366D0E8FF;" d="M443.733,187.065c0-14.117-11.458-25.6-25.55-25.6h-76.85v51.2h102.4V187.065z"/> <rect x="238.933" y="161.465" style="fill:#003366D0E8FF;" width="85.333" height="51.2"/> </g> <path style="fill:#003366;" d="M494.933,332.131v-76.8c0-84.692-68.875-153.6-153.525-153.6H55.092 c-20.967,0-38.025,17.017-38.025,37.925v4.742h93.867H128h93.867h17.067h85.333h17.067h76.85c23.5,0,42.617,19.142,42.617,42.667 v34.133c0,4.717-3.817,8.533-8.533,8.533H341.333h-17.067h-85.333h-17.067H128h-17.067H17.067v8.533h93.867H128h93.867h17.067 h85.333h17.067h76.85c23.5,0,42.617,19.142,42.617,42.667v34.133c0,4.717-3.817,8.533-8.533,8.533H341.333h-17.067h-85.333h-17.067 H128h-17.067H17.067v47.408c0,20.908,17.058,37.925,38.025,37.925h5.35c0.033-0.197,0.115-0.375,0.15-0.572 c0.469-2.597,1.137-5.119,1.984-7.566c0.155-0.449,0.32-0.887,0.487-1.331c0.921-2.44,1.995-4.8,3.263-7.047 c0.182-0.323,0.387-0.628,0.576-0.947c1.376-2.321,2.886-4.555,4.6-6.622c0.047-0.056,0.1-0.106,0.147-0.162 c1.72-2.058,3.621-3.952,5.639-5.717c0.227-0.198,0.436-0.412,0.666-0.606c1.984-1.677,4.115-3.174,6.34-4.538 c0.375-0.23,0.742-0.462,1.123-0.683c2.222-1.284,4.544-2.4,6.959-3.343c0.421-0.164,0.845-0.313,1.272-0.466 c2.481-0.894,5.032-1.628,7.672-2.131c0.337-0.064,0.68-0.098,1.02-0.156c2.801-0.476,5.66-0.781,8.594-0.781 c2.032,0,4.028,0.151,5.999,0.383c0.615,0.072,1.213,0.184,1.821,0.279c1.364,0.211,2.712,0.465,4.04,0.781 c0.658,0.157,1.311,0.322,1.959,0.505c1.326,0.372,2.622,0.805,3.903,1.28c0.536,0.198,1.082,0.374,1.609,0.59 c1.764,0.722,3.488,1.521,5.148,2.429c0.197,0.108,0.379,0.239,0.575,0.349c1.46,0.824,2.874,1.718,4.242,2.676 c0.498,0.349,0.971,0.723,1.456,1.089c1.053,0.795,2.075,1.623,3.063,2.495c0.478,0.422,0.951,0.845,1.412,1.284 c1.012,0.963,1.974,1.972,2.906,3.014c0.336,0.377,0.691,0.732,1.017,1.118c1.215,1.442,2.359,2.944,3.412,4.515 c0.032,0.048,0.072,0.09,0.104,0.138c0.032-0.048,0.072-0.09,0.104-0.138c1.053-1.571,2.197-3.073,3.412-4.515 c0.326-0.386,0.68-0.742,1.017-1.118c0.932-1.042,1.894-2.051,2.906-3.014c0.462-0.439,0.935-0.862,1.412-1.284 c0.988-0.872,2.01-1.7,3.063-2.495c0.484-0.366,0.958-0.74,1.456-1.089c1.368-0.958,2.782-1.852,4.242-2.676 c0.196-0.111,0.378-0.242,0.575-0.349c1.66-0.907,3.384-1.706,5.148-2.429c0.528-0.216,1.073-0.392,1.609-0.59 c1.281-0.474,2.577-0.907,3.903-1.28c0.649-0.182,1.3-0.348,1.959-0.505c1.328-0.317,2.675-0.57,4.04-0.781 c0.608-0.094,1.207-0.206,1.821-0.279c1.971-0.231,3.966-0.383,5.998-0.383c2.934,0,5.793,0.304,8.594,0.78 c0.34,0.058,0.683,0.092,1.02,0.156c2.64,0.504,5.191,1.237,7.671,2.131c0.428,0.154,0.853,0.303,1.276,0.468 c2.415,0.943,4.736,2.058,6.957,3.342c0.381,0.22,0.748,0.453,1.123,0.683c2.225,1.364,4.356,2.861,6.34,4.538 c0.23,0.194,0.439,0.407,0.666,0.606c2.018,1.766,3.919,3.659,5.639,5.717c0.047,0.056,0.1,0.106,0.147,0.162 c1.712,2.066,3.221,4.297,4.596,6.617c0.191,0.322,0.397,0.63,0.581,0.956c1.266,2.246,2.34,4.604,3.26,7.043 c0.168,0.444,0.333,0.882,0.488,1.331c0.846,2.447,1.515,4.969,1.984,7.566c0.035,0.196,0.117,0.375,0.15,0.572h103.817 c0.033-0.197,0.115-0.375,0.15-0.572c0.469-2.597,1.138-5.119,1.984-7.566c0.155-0.449,0.32-0.887,0.487-1.331 c0.921-2.44,1.995-4.8,3.263-7.047c0.182-0.323,0.387-0.628,0.576-0.947c1.376-2.321,2.886-4.555,4.6-6.622 c0.047-0.056,0.1-0.106,0.147-0.162c1.72-2.058,3.621-3.952,5.639-5.717c0.227-0.198,0.436-0.411,0.666-0.606 c1.984-1.677,4.115-3.174,6.34-4.538c0.375-0.23,0.742-0.462,1.123-0.683c2.222-1.284,4.544-2.4,6.959-3.343 c0.421-0.164,0.845-0.313,1.272-0.466c2.481-0.894,5.032-1.628,7.672-2.131c0.337-0.064,0.68-0.098,1.02-0.156 c2.801-0.476,5.66-0.781,8.594-0.781c2.934,0,5.793,0.304,8.594,0.78c0.34,0.058,0.683,0.092,1.02,0.156 c2.64,0.504,5.191,1.237,7.671,2.131c0.428,0.154,0.853,0.303,1.276,0.468c2.415,0.943,4.736,2.058,6.957,3.342 c0.381,0.22,0.748,0.453,1.123,0.683c2.225,1.364,4.356,2.861,6.34,4.538c0.23,0.194,0.439,0.407,0.666,0.606 c2.018,1.766,3.919,3.659,5.639,5.717c0.047,0.056,0.1,0.106,0.147,0.162c1.712,2.066,3.221,4.297,4.596,6.617 c0.191,0.322,0.397,0.63,0.581,0.956c1.266,2.246,2.34,4.604,3.26,7.043c0.168,0.444,0.333,0.882,0.488,1.331 c0.846,2.447,1.515,4.969,1.984,7.566c0.035,0.196,0.117,0.375,0.15,0.572h43.375v-59.733h-42.667v-17.067L494.933,332.131 L494.933,332.131z"/> <g> <path style="fill:#003366D0E8FF;" d="M401.067,383.331c-18.825,0-34.133,15.308-34.133,34.133c0,18.825,15.308,34.133,34.133,34.133 c18.825,0,34.133-15.308,34.133-34.133C435.2,398.64,419.892,383.331,401.067,383.331z"/> <rect x="17.067" y="255.331" style="fill:#003366D0E8FF;" width="93.867" height="51.2"/> <path style="fill:#003366D0E8FF;" d="M196.267,383.331c-18.825,0-34.133,15.308-34.133,34.133c0,18.825,15.308,34.133,34.133,34.133 S230.4,436.29,230.4,417.465C230.4,398.64,215.092,383.331,196.267,383.331z"/> <path style="fill:#003366D0E8FF;" d="M110.933,383.331c-18.825,0-34.133,15.308-34.133,34.133c0,18.825,15.308,34.133,34.133,34.133 s34.133-15.308,34.133-34.133C145.067,398.64,129.758,383.331,110.933,383.331z"/> </g> <path style="fill:#0033661C71DA;" d="M341.408,84.665H55.092C24.717,84.665,0,109.331,0,139.656v13.275v68.267v25.6v68.267v55.942 c0,30.325,24.717,54.992,55.092,54.992h5.412c4.082,24.176,25.109,42.667,50.429,42.667c17.799,0,33.489-9.138,42.667-22.958 c9.178,13.82,24.868,22.958,42.667,22.958c25.32,0,46.347-18.491,50.429-42.667h103.942c4.082,24.176,25.109,42.667,50.429,42.667 s46.347-18.491,50.429-42.667h51.971c4.717,0,8.533-3.817,8.533-8.533v-68.267v-17.067v-76.8 C512,161.223,435.475,84.665,341.408,84.665z M324.267,212.665h-85.333v-51.2h85.333V212.665z M341.333,161.465h76.85 c14.092,0,25.55,11.483,25.55,25.6v25.6h-102.4V161.465z M221.867,212.665H128v-51.2h93.867V212.665z M110.933,212.665H17.067v-51.2 h93.867V212.665z M324.267,306.531h-85.333v-51.2h85.333V306.531z M341.333,255.331h76.85c14.092,0,25.55,11.483,25.55,25.6v25.6 h-102.4V255.331z M221.867,306.531H128v-51.2h93.867V306.531z M110.933,306.531H17.067v-51.2h93.867V306.531z M110.933,451.598 c-18.825,0-34.133-15.308-34.133-34.133c0-18.825,15.308-34.133,34.133-34.133s34.133,15.308,34.133,34.133 C145.067,436.29,129.758,451.598,110.933,451.598z M196.267,451.598c-18.825,0-34.133-15.308-34.133-34.133 c0-18.825,15.308-34.133,34.133-34.133S230.4,398.64,230.4,417.465C230.4,436.29,215.092,451.598,196.267,451.598z M401.067,451.598 c-18.825,0-34.133-15.308-34.133-34.133c0-18.825,15.308-34.133,34.133-34.133c18.825,0,34.133,15.308,34.133,34.133 C435.2,436.29,419.892,451.598,401.067,451.598z M494.933,349.198v59.733h-43.375c-0.033-0.197-0.115-0.375-0.15-0.572 c-0.469-2.597-1.137-5.119-1.984-7.566c-0.155-0.449-0.32-0.887-0.488-1.331c-0.92-2.439-1.994-4.797-3.26-7.043 c-0.184-0.327-0.391-0.634-0.581-0.956c-1.376-2.32-2.884-4.551-4.596-6.617c-0.047-0.056-0.1-0.106-0.147-0.162 c-1.72-2.058-3.621-3.952-5.639-5.717c-0.227-0.198-0.436-0.412-0.666-0.606c-1.984-1.677-4.115-3.174-6.34-4.538 c-0.375-0.23-0.742-0.462-1.123-0.683c-2.221-1.284-4.543-2.399-6.957-3.342c-0.422-0.165-0.848-0.314-1.276-0.468 c-2.48-0.894-5.031-1.627-7.671-2.131c-0.337-0.064-0.68-0.098-1.02-0.156c-2.801-0.476-5.66-0.78-8.594-0.78 c-2.934,0-5.793,0.304-8.594,0.78c-0.34,0.058-0.683,0.092-1.02,0.156c-2.64,0.504-5.192,1.237-7.672,2.131 c-0.427,0.154-0.851,0.302-1.272,0.466c-2.415,0.944-4.737,2.059-6.959,3.343c-0.381,0.22-0.748,0.453-1.123,0.683 c-2.225,1.364-4.356,2.861-6.34,4.538c-0.23,0.194-0.439,0.407-0.666,0.606c-2.018,1.766-3.919,3.659-5.639,5.717 c-0.047,0.056-0.1,0.106-0.147,0.162c-1.714,2.068-3.224,4.301-4.6,6.622c-0.189,0.319-0.393,0.623-0.576,0.947 c-1.267,2.247-2.342,4.607-3.263,7.047c-0.168,0.443-0.332,0.882-0.487,1.331c-0.846,2.447-1.515,4.969-1.984,7.566 c-0.035,0.196-0.117,0.375-0.15,0.572H246.758c-0.033-0.197-0.115-0.375-0.15-0.572c-0.469-2.597-1.137-5.119-1.984-7.566 c-0.155-0.449-0.32-0.887-0.488-1.331c-0.92-2.439-1.994-4.797-3.26-7.043c-0.184-0.327-0.391-0.634-0.581-0.956 c-1.376-2.32-2.884-4.551-4.596-6.617c-0.047-0.056-0.1-0.106-0.147-0.162c-1.72-2.058-3.621-3.952-5.639-5.717 c-0.227-0.198-0.436-0.411-0.666-0.606c-1.984-1.677-4.115-3.174-6.34-4.538c-0.375-0.23-0.742-0.462-1.123-0.683 c-2.221-1.284-4.543-2.399-6.957-3.342c-0.422-0.165-0.848-0.314-1.276-0.468c-2.48-0.894-5.031-1.627-7.671-2.131 c-0.337-0.064-0.68-0.098-1.02-0.156c-2.801-0.476-5.66-0.78-8.594-0.78c-2.032,0-4.028,0.151-5.999,0.383 c-0.615,0.072-1.213,0.184-1.821,0.279c-1.364,0.211-2.712,0.465-4.04,0.781c-0.658,0.157-1.311,0.322-1.959,0.505 c-1.326,0.372-2.622,0.805-3.903,1.28c-0.536,0.198-1.082,0.374-1.609,0.59c-1.764,0.722-3.488,1.521-5.148,2.429 c-0.197,0.108-0.379,0.239-0.575,0.349c-1.46,0.824-2.874,1.718-4.242,2.676c-0.498,0.349-0.971,0.723-1.456,1.089 c-1.053,0.795-2.075,1.623-3.063,2.495c-0.478,0.422-0.951,0.845-1.412,1.284c-1.012,0.963-1.974,1.972-2.906,3.014 c-0.336,0.377-0.691,0.732-1.017,1.118c-1.215,1.442-2.359,2.944-3.412,4.515c-0.032,0.048-0.072,0.09-0.104,0.138 c-0.032-0.048-0.072-0.09-0.104-0.138c-1.053-1.571-2.197-3.073-3.412-4.515c-0.326-0.386-0.68-0.742-1.017-1.118 c-0.932-1.042-1.894-2.051-2.906-3.014c-0.462-0.439-0.935-0.862-1.412-1.284c-0.988-0.872-2.01-1.7-3.063-2.495 c-0.484-0.366-0.958-0.74-1.456-1.089c-1.368-0.958-2.782-1.852-4.242-2.676c-0.196-0.111-0.378-0.242-0.575-0.349 c-1.66-0.907-3.384-1.706-5.148-2.429c-0.528-0.216-1.074-0.392-1.609-0.59c-1.281-0.474-2.577-0.907-3.903-1.28 c-0.649-0.182-1.3-0.348-1.959-0.505c-1.328-0.317-2.675-0.57-4.04-0.781c-0.608-0.094-1.207-0.206-1.821-0.279 c-1.971-0.231-3.966-0.383-5.998-0.383c-2.934,0-5.793,0.304-8.594,0.78c-0.34,0.058-0.683,0.092-1.02,0.156 c-2.64,0.504-5.192,1.237-7.672,2.131c-0.427,0.154-0.851,0.302-1.272,0.466c-2.415,0.944-4.737,2.059-6.959,3.343 c-0.381,0.22-0.748,0.453-1.123,0.683c-2.225,1.364-4.356,2.861-6.34,4.538c-0.23,0.194-0.439,0.407-0.666,0.606 c-2.018,1.766-3.919,3.659-5.639,5.717c-0.047,0.056-0.1,0.106-0.147,0.162c-1.713,2.068-3.224,4.301-4.6,6.622 c-0.189,0.319-0.393,0.623-0.576,0.947c-1.267,2.247-2.342,4.607-3.263,7.047c-0.168,0.443-0.332,0.882-0.487,1.331 c-0.846,2.447-1.515,4.969-1.984,7.566c-0.035,0.196-0.117,0.375-0.15,0.572h-5.35c-20.967,0-38.025-17.016-38.025-37.924v-47.408 h93.867H128h93.867h17.067h85.333h17.067h110.933c4.717,0,8.533-3.817,8.533-8.533v-34.133c0-23.525-19.117-42.667-42.617-42.667 h-76.85h-17.067h-85.333h-17.067H128h-17.067H17.067v-8.533h93.867H128h93.867h17.067h85.333h17.067h110.933 c4.717,0,8.533-3.817,8.533-8.533v-34.133c0-23.525-19.117-42.667-42.617-42.667h-76.85h-17.067h-85.333h-17.067H128h-17.067H17.067 v-4.742c0-20.908,17.058-37.925,38.025-37.925h286.317c84.65,0,153.525,68.908,153.525,153.6v76.8h-42.667v17.067H494.933z"/> <g> <path style="fill:#003366FF5D5D;" d="M427.764,73.998c-2.183,0-4.369-0.833-6.033-2.5c-3.333-3.331-3.333-8.735,0-12.067l30.171-30.171 c3.329-3.333,8.738-3.333,12.067,0c3.333,3.331,3.333,8.735,0,12.067l-30.171,30.171C432.133,73.165,429.948,73.998,427.764,73.998 z"/> <path style="fill:#003366FF5D5D;" d="M457.935,73.998c-2.183,0-4.369-0.833-6.033-2.5l-30.171-30.171c-3.333-3.331-3.333-8.735,0-12.067 c3.329-3.333,8.738-3.333,12.067,0l30.171,30.171c3.333,3.331,3.333,8.735,0,12.067C462.304,73.165,460.119,73.998,457.935,73.998z "/> </g> <path style="fill:#00336600D40B;" d="M107.764,73.998c-16.469,0-29.867-13.398-29.867-29.867s13.398-29.867,29.867-29.867 s29.867,13.398,29.867,29.867S124.233,73.998,107.764,73.998z M107.764,31.331c-7.058,0-12.8,5.742-12.8,12.8s5.742,12.8,12.8,12.8 s12.8-5.742,12.8-12.8S114.823,31.331,107.764,31.331z"/> <path style="fill:#003366FFC504;" d="M298.3,497.736c-2.183,0-4.367-0.833-6.033-2.5L268.131,471.1c-3.333-3.331-3.333-8.735,0-12.067 l24.135-24.135c3.329-3.333,8.733-3.333,12.067,0l24.138,24.135c1.6,1.6,2.5,3.771,2.5,6.033c0,2.262-0.9,4.433-2.5,6.033 l-24.138,24.135C302.667,496.902,300.483,497.736,298.3,497.736z M286.233,465.067l12.067,12.069l12.069-12.069L298.3,452.998 L286.233,465.067z"/> </g>
</svg>