<!DOCTYPE svg PUBLIC "-//W3C//DTD SVG 1.1//EN" "http://www.w3.org/Graphics/SVG/1.1/DTD/svg11.dtd">
<!-- Uploaded to: SVG Repo, www.svgrepo.com, Transformed by: SVG Repo Mixer Tools -->
<svg width="800px" height="800px" viewBox="0 0 512 512" id="Layer_1" version="1.1" xml:space="preserve" xmlns="http://www.w3.org/2000/svg" xmlns:xlink="http://www.w3.org/1999/xlink" fill="#003366" stroke="#003366">
<g id="SVGRepo_bgCarrier" stroke-width="0"/>
<g id="SVGRepo_tracerCarrier" stroke-linecap="round" stroke-linejoin="round" stroke="#CCCCCC" stroke-width="1.024"/>
<g id="SVGRepo_iconCarrier"> <style type="text/css"> .st0{fill:#003366;} </style> <g> <path class="st0" d="M281.5,421.2V67.5c0-7-2.9-13.4-7.5-18S263,42,256,42c-14.1,0-25.5,11.4-25.5,25.5v347.9 c0.9,0.2,1.8,0.4,2.8,0.6C248.6,419.1,264.4,420.8,281.5,421.2z"/> <path class="st0" d="M216.5,173.6V91H57.7l-35.3,41.3l35.3,41.3H216.5z M97.7,125.3H195c3.9,0,7,3.1,7,7c0,3.9-3.1,7-7,7H97.7 c-3.9,0-7-3.1-7-7C90.7,128.5,93.8,125.3,97.7,125.3z"/> <path class="st0" d="M489.7,132.3L454.3,91H295.5v82.7h158.8L489.7,132.3z M414.3,139.3H317c-3.9,0-7-3.1-7-7c0-3.9,3.1-7,7-7h97.3 c3.9,0,7,3.1,7,7C421.3,136.2,418.2,139.3,414.3,139.3z"/> <path class="st0" d="M216.5,223.3H57.7l-35.3,41.3L57.7,306h158.8V223.3z M195,271.7H97.7c-3.9,0-7-3.1-7-7c0-3.9,3.1-7,7-7H195 c3.9,0,7,3.1,7,7C202,268.5,198.9,271.7,195,271.7z"/> <path class="st0" d="M295.5,223.3V306h158.8l35.3-41.3l-35.3-41.3H295.5z M414.3,271.7H317c-3.9,0-7-3.1-7-7c0-3.9,3.1-7,7-7h97.3 c3.9,0,7,3.1,7,7C421.3,268.5,418.2,271.7,414.3,271.7z"/> <path class="st0" d="M368,435.5c-10.4-6.9-42.6,0.7-86.5-0.3c-15.7-0.4-32.8-1.9-51-5.5c-4.6-0.9-9.3-2-14-3.2 C141,407,129,470,129,470h254C383,470,383,445.5,368,435.5z"/> </g> </g>
</svg>